HIERARCHY
ROOT hip
{
  OFFSET 0 0 0
  CHANNELS 6 Xposition Yposition Zposition Zrotation Yrotation Xrotation
  JOINT abdomen
  {
    OFFSET 0 20.6881 -0.73152
    CHANNELS 3 Zrotation Xrotation Yrotation
    JOINT chest
    {
      OFFSET 0 11.7043 -0.48768
      CHANNELS 3 Zrotation Xrotation Yrotation
      JOINT neck
      {
        OFFSET 0 22.1894 -2.19456
        CHANNELS 3 Zrotation Xrotation Yrotation
        JOINT head
        {
          OFFSET -0.24384 7.07133 1.2192
          CHANNELS 3 Zrotation Xrotation Yrotation
          JOINT leftEye
          {
            OFFSET 4.14528 8.04674 8.04672
            CHANNELS 3 Zrotation Xrotation Yrotation
            End Site
            {
              OFFSET 1 0 0
            }
          }
          JOINT rightEye
          {
            OFFSET -3.6576 8.04674 8.04672
            CHANNELS 3 Zrotation Xrotation Yrotation
            End Site
            {
              OFFSET 1 0 0
            }
          }
        }
      }
      JOINT rCollar
      {
        OFFSET -2.68224 19.2634 -4.8768
        CHANNELS 3 Zrotation Xrotation Yrotation
        JOINT rShldr
        {
          OFFSET -8.77824 -1.95073 1.46304
          CHANNELS 3 Zrotation Xrotation Yrotation
          JOINT rForeArm
          {
            OFFSET -28.1742 -1.7115 0.48768
            CHANNELS 3 Zrotation Xrotation Yrotation
            JOINT rHand
            {
              OFFSET -22.5879 0.773209 7.07136
              CHANNELS 3 Zrotation Xrotation Yrotation
              JOINT rThumb1
              {
                OFFSET -1.2192 -0.487915 3.41376
                CHANNELS 3 Zrotation Xrotation Yrotation
                JOINT rThumb2
                {
                  OFFSET -3.37035 -0.52449 3.41376
                  CHANNELS 3 Zrotation Xrotation Yrotation
                  End Site
                  {
                    OFFSET -1.78271 -1.18214 1.43049
                  }
                }
              }
              JOINT rIndex1
              {
                OFFSET -7.75947 0.938293 5.60832
                CHANNELS 3 Zrotation Xrotation Yrotation
                JOINT rIndex2
                {
                  OFFSET -2.54057 -0.884171 1.56538
                  CHANNELS 3 Zrotation Xrotation Yrotation
                  End Site
                  {
                    OFFSET -1.62519 -0.234802 1.16502
                  }
                }
              }
              JOINT rMid1
              {
                OFFSET -8.24714 1.18213 3.41376
                CHANNELS 3 Zrotation Xrotation Yrotation
                JOINT rMid2
                {
                  OFFSET -3.10165 -0.590103 1.0647
                  CHANNELS 3 Zrotation Xrotation Yrotation
                  End Site
                  {
                    OFFSET -2.48547 -0.328903 0.83742
                  }
                }
              }
              JOINT rRing1
              {
                OFFSET -8.82822 0.546677 1.51678
                CHANNELS 3 Zrotation Xrotation Yrotation
                JOINT rRing2
                {
                  OFFSET -2.60934 -0.819778 -0.0198488
                  CHANNELS 3 Zrotation Xrotation Yrotation
                  End Site
                  {
                    OFFSET -2.33842 -0.294052 0.168128
                  }
                }
              }
              JOINT rPinky1
              {
                OFFSET -8.27202 -0.0477905 -0.4584
                CHANNELS 3 Zrotation Xrotation Yrotation
                JOINT rPinky2
                {
                  OFFSET -1.82734 -0.647385 -0.700984
                  CHANNELS 3 Zrotation Xrotation Yrotation
                  End Site
                  {
                    OFFSET -1.69225 -0.51767 -0.607171
                  }
                }
              }
            }
          }
        }
      }
      JOINT lCollar
      {
        OFFSET 2.68224 19.2634 -4.8768
        CHANNELS 3 Zrotation Xrotation Yrotation
        JOINT lShldr
        {
          OFFSET 8.77824 -1.95073 1.46304
          CHANNELS 3 Zrotation Xrotation Yrotation
          JOINT lForeArm
          {
            OFFSET 28.1742 -1.7115 0.48768
            CHANNELS 3 Zrotation Xrotation Yrotation
            JOINT lHand
            {
              OFFSET 22.5879 0.773209 7.07136
              CHANNELS 3 Zrotation Xrotation Yrotation
              JOINT lThumb1
              {
                OFFSET 1.2192 -0.487915 3.41376
                CHANNELS 3 Zrotation Xrotation Yrotation
                JOINT lThumb2
                {
                  OFFSET 3.37035 -0.52449 3.41376
                  CHANNELS 3 Zrotation Xrotation Yrotation
                  End Site
                  {
                    OFFSET 1.78271 -1.18214 1.43049
                  }
                }
              }
              JOINT lIndex1
              {
                OFFSET 7.75947 0.938293 5.60832
                CHANNELS 3 Zrotation Xrotation Yrotation
                JOINT lIndex2
                {
                  OFFSET 2.54057 -0.884171 1.56538
                  CHANNELS 3 Zrotation Xrotation Yrotation
                  End Site
                  {
                    OFFSET 1.62519 -0.234802 1.16502
                  }
                }
              }
              JOINT lMid1
              {
                OFFSET 8.24714 1.18213 3.41376
                CHANNELS 3 Zrotation Xrotation Yrotation
                JOINT lMid2
                {
                  OFFSET 3.10165 -0.590103 1.0647
                  CHANNELS 3 Zrotation Xrotation Yrotation
                  End Site
                  {
                    OFFSET 2.48547 -0.328903 0.83742
                  }
                }
              }
              JOINT lRing1
              {
                OFFSET 8.82822 0.546677 1.51678
                CHANNELS 3 Zrotation Xrotation Yrotation
                JOINT lRing2
                {
                  OFFSET 2.60934 -0.819778 -0.0198488
                  CHANNELS 3 Zrotation Xrotation Yrotation
                  End Site
                  {
                    OFFSET 2.33842 -0.294052 0.168128
                  }
                }
              }
              JOINT lPinky1
              {
                OFFSET 8.27202 -0.0477905 -0.4584
                CHANNELS 3 Zrotation Xrotation Yrotation
                JOINT lPinky2
                {
                  OFFSET 1.82734 -0.647385 -0.700984
                  CHANNELS 3 Zrotation Xrotation Yrotation
                  End Site
                  {
                    OFFSET 1.69225 -0.51767 -0.607171
                  }
                }
              }
            }
          }
        }
      }
    }
  }
  JOINT rButtock
  {
    OFFSET -8.77824 4.35084 1.2192
    CHANNELS 3 Zrotation Xrotation Yrotation
    JOINT rThigh
    {
      OFFSET 0 -1.70687 -2.19456
      CHANNELS 3 Zrotation Xrotation Yrotation
      JOINT rShin
      {
        OFFSET 0 -36.8199 0.73152
        CHANNELS 3 Zrotation Xrotation Yrotation
        JOINT rFoot
        {
          OFFSET 0.73152 -45.1104 -5.12064
          CHANNELS 3 Zrotation Xrotation Yrotation
          End Site
          {
            OFFSET -1.1221 -3.69964 12.103
          }
        }
      }
    }
  }
  JOINT lButtock
  {
    OFFSET 8.77824 4.35084 1.2192
    CHANNELS 3 Zrotation Xrotation Yrotation
    JOINT lThigh
    {
      OFFSET 0 -1.70687 -2.19456
      CHANNELS 3 Zrotation Xrotation Yrotation
      JOINT lShin
      {
        OFFSET 0 -36.8199 0.73152
        CHANNELS 3 Zrotation Xrotation Yrotation
        JOINT lFoot
        {
          OFFSET -0.73152 -45.1104 -5.12064
          CHANNELS 3 Zrotation Xrotation Yrotation
          End Site
          {
            OFFSET 1.1221 -3.69964 12.103
          }
        }
      }
    }
  }
}
MOTION
Frames:	5
Frame Time:	0.00833333
-0.532283 82.3369 -17.7077 -4.0495 3.7811 1.5856 4.39315 -2.92703 -1.19778 1.8702 -4.41546 -0.402226 -3.97068 5.34574 -2.7577 -3.24237 -2.20101 -4.74406 -0.0 0.0 0.0 -0.0 0.0 0.0 1.67039e-13 2.70382e-14 1.05853e-13 18.018 -16.077 51.5746 -27.9217 -30.1638 67.5103 -0.401152 -17.7174 -2.57341 3.03706e-10 5.00836e-10 6.91306e-10 5.17376e-10 8.63626e-10 1.19811e-09 3.03714e-10 5.0083e-10 6.9129e-10 7.73091 5.47488 0.417314 3.03709e-10 5.00827e-10 6.913e-10 2.90554 0.965183 0.102902 3.03713e-10 5.00826e-10 6.91306e-10 10.2786 0.731801 0.0259123 3.03702e-10 5.00831e-10 6.91309e-10 2.22167 -0.733487 -0.20892 1.6698e-13 2.70314e-14 1.05604e-13 -26.0417 -8.79886 -46.8486 28.0787 -31.1034 -69.013 0.0467123 6.15646 -0.868613 -4.7263e-10 6.94363e-10 -3.26446e-10 -8.17101e-10 1.20217e-09 -5.64037e-10 -4.72642e-10 6.94368e-10 -3.2643e-10 -7.73091 5.47488 -0.417314 -4.72641e-10 6.94376e-10 -3.26465e-10 -2.90554 0.965183 -0.102902 -4.72636e-10 6.94366e-10 -3.26444e-10 -10.2786 0.731801 -0.0259123 -4.72626e-10 6.94368e-10 -3.26452e-10 -2.22167 -0.733487 0.20892 -2.03217e-16 0.0 -3.88251e-19 9.18269 -16.6629 7.22248 -0.215457 31.8452 0.639611 -4.90381 -12.6026 -14.1498 2.03217e-16 0.0 3.88251e-19 -2.07474 -17.7789 -9.98456 0.161808 33.3914 -0.562546 3.30184 -14.6324 8.82874
-0.515537 82.3369 -17.7117 -3.9822 3.8351 1.5949 4.36406 -2.91387 -1.29467 1.92174 -4.38035 -0.428049 -3.93087 5.29993 -2.72651 -3.20891 -2.36671 -4.69262 -0.0 0.0 0.0 -0.0 0.0 0.0 1.3411e-13 1.49001e-14 4.42401e-14 18.8989 -13.998 50.3511 -28.0548 -30.9378 68.7516 -0.34163 -16.3602 -2.36532 3.23856e-10 5.05148e-10 6.27275e-10 5.52954e-10 8.71575e-10 1.08781e-09 3.23863e-10 5.05143e-10 6.27261e-10 7.73091 5.47488 0.417314 3.23857e-10 5.05141e-10 6.27269e-10 2.90554 0.965183 0.102902 3.23863e-10 5.05141e-10 6.27275e-10 10.2786 0.731801 0.0259123 3.23852e-10 5.05146e-10 6.27279e-10 2.22167 -0.733487 -0.20892 1.34098e-13 1.48933e-14 4.40161e-14 -27.3203 -6.32838 -45.2838 28.1738 -31.7984 -70.1736 0.0656383 7.31889 -1.03409 -3.83609e-10 4.56413e-10 -1.86581e-10 -6.62547e-10 7.89973e-10 -3.2234e-10 -3.83619e-10 4.56416e-10 -1.86566e-10 -7.73091 5.47488 -0.417314 -3.83618e-10 4.56424e-10 -1.86597e-10 -2.90554 0.965183 -0.102902 -3.83614e-10 4.56415e-10 -1.86579e-10 -10.2786 0.731801 -0.0259123 -3.83604e-10 4.56417e-10 -1.86588e-10 -2.22167 -0.733487 0.20892 -2.03217e-16 0.0 -3.88251e-19 9.1798 -16.6827 7.21425 -0.214094 31.8432 0.639673 -4.9122 -12.6125 -14.177 2.03217e-16 0.0 3.88251e-19 -2.07013 -17.8026 -9.97451 0.159379 33.3793 -0.561074 3.29011 -14.627 8.79878
-0.50568 82.3384 -17.7168 -3.9501 3.9036 1.5737 4.30497 -2.87562 -1.40505 1.97601 -4.32728 -0.457525 -3.84974 5.14012 -2.67725 -3.20526 -2.46788 -4.60522 -0.0 0.0 0.0 -0.0 0.0 0.0 6.58548e-14 -5.36414e-15 -4.25244e-14 19.8508 -11.8574 49.098 -28.1697 -31.7077 69.9615 -0.29 -15.1296 -2.17818 2.88116e-10 4.62923e-10 4.97635e-10 4.9249e-10 7.98989e-10 8.63232e-10 2.88121e-10 4.62919e-10 4.97623e-10 7.73091 5.47488 0.417314 2.88113e-10 4.6292e-10 4.97631e-10 2.90554 0.965183 0.102902 2.88123e-10 4.62921e-10 4.97635e-10 10.2786 0.731801 0.0259123 2.88113e-10 4.62926e-10 4.97639e-10 2.22167 -0.733487 -0.20892 6.59128e-14 -5.36924e-15 -4.27014e-14 -28.7562 -3.81358 -43.6801 28.2551 -32.4464 -71.1911 0.087559 8.48787 -1.20141 -2.37963e-10 4.86016e-11 9.48036e-11 -4.09655e-10 8.35401e-11 1.64019e-10 -2.3797e-10 4.86037e-11 9.48175e-11 -7.73091 5.47488 -0.417314 -2.37967e-10 4.86089e-11 9.47939e-11 -2.90554 0.965183 -0.102902 -2.37966e-10 4.8603e-11 9.48039e-11 -10.2786 0.731801 -0.0259123 -2.37956e-10 4.86043e-11 9.47944e-11 -2.22167 -0.733487 0.20892 -2.03217e-16 0.0 -3.88251e-19 9.14679 -16.6934 7.19324 -0.211296 31.847 0.63984 -4.91775 -12.6309 -14.1938 2.03217e-16 0.0 3.88251e-19 -2.09127 -17.8054 -9.9614 0.155719 33.3622 -0.559256 3.28376 -14.6292 8.78499
-0.504408 82.3377 -17.753 -3.9445 3.9392 1.6023 4.24053 -2.81944 -1.51005 2.02396 -4.2671 -0.485587 -3.7532 4.92571 -2.63129 -3.20043 -2.52518 -4.52263 -0.0 0.0 0.0 -0.0 0.0 0.0 -5.86307e-15 -2.17523e-14 -1.16984e-13 20.8756 -9.68775 47.8107 -28.2573 -32.4263 71.1086 -0.246851 -14.0228 -2.01145 2.12768e-10 3.59727e-10 3.26075e-10 3.63937e-10 6.21025e-10 5.65736e-10 2.12771e-10 3.59725e-10 3.26065e-10 7.73091 5.47488 0.417314 2.12763e-10 3.59729e-10 3.26073e-10 2.90554 0.965183 0.102902 2.12776e-10 3.5973e-10 3.26077e-10 10.2786 0.731801 0.0259123 2.12767e-10 3.59736e-10 3.26081e-10 2.22167 -0.733487 -0.20892 -5.7398e-15 -2.17553e-14 -1.17113e-13 -30.3326 -1.30311 -42.1105 28.3125 -32.9861 -72.0309 0.111656 9.55526 -1.35531 -8.20089e-11 -3.35041e-10 3.64033e-10 -1.39164e-10 -5.8085e-10 6.29326e-10 -8.20135e-11 -3.35039e-10 3.64046e-10 -7.73091 5.47488 -0.417314 -8.20092e-11 -3.35038e-10 3.64031e-10 -2.90554 0.965183 -0.102902 -8.20112e-11 -3.3504e-10 3.64033e-10 -10.2786 0.731801 -0.0259123 -8.20013e-11 -3.35039e-10 3.64023e-10 -2.22167 -0.733487 0.20892 -2.03217e-16 0.0 -3.88251e-19 9.1072 -16.6979 7.16666 -0.208218 31.8478 0.639874 -4.92122 -12.649 -14.2034 2.03217e-16 0.0 3.88251e-19 -2.11958 -17.8007 -9.95581 0.152517 33.3432 -0.557639 3.28034 -14.6316 8.77984
-0.512688 82.3385 -17.7894 -3.9786 3.9585 1.6054 4.19533 -2.75247 -1.59081 2.05651 -4.21068 -0.50717 -3.66767 4.71612 -2.60994 -3.16359 -2.55927 -4.48564 -0.0 0.0 0.0 -0.0 0.0 0.0 -4.91807e-14 -2.22623e-14 -1.41684e-13 21.9724 -7.52468 46.4769 -28.3147 -33.0498 72.1511 -0.213101 -13.037 -1.86485 1.14096e-10 1.81129e-10 1.36287e-10 1.95251e-10 3.12839e-10 2.36684e-10 1.14098e-10 1.81129e-10 1.36277e-10 7.73091 5.47488 0.417314 1.1409e-10 1.81133e-10 1.36287e-10 2.90554 0.965183 0.102902 1.14103e-10 1.81135e-10 1.36288e-10 10.2786 0.731801 0.0259123 1.14094e-10 1.81141e-10 1.36293e-10 2.22167 -0.733487 -0.20892 -4.90221e-14 -2.22639e-14 -1.41783e-13 -32.0132 1.1338 -40.6388 28.3406 -33.3562 -72.6489 0.134862 10.413 -1.47995 3.79345e-11 -5.00484e-10 4.67433e-10 6.81851e-11 -8.66921e-10 8.07866e-10 3.79313e-11 -5.00484e-10 4.67446e-10 -7.73091 5.47488 -0.417314 3.79363e-11 -5.00485e-10 4.67437e-10 -2.90554 0.965183 -0.102902 3.79323e-11 -5.00485e-10 4.67433e-10 -10.2786 0.731801 -0.0259123 3.79424e-11 -5.00484e-10 4.67424e-10 -2.22167 -0.733487 0.20892 -2.03217e-16 0.0 -3.88251e-19 9.08462 -16.6991 7.14171 -0.206015 31.8366 0.639537 -4.92334 -12.6579 -14.209 2.03217e-16 0.0 3.88251e-19 -2.13646 -17.8015 -9.96831 0.151462 33.3252 -0.556767 3.27742 -14.6268 8.7758
